<svg xmlns="http://www.w3.org/2000/svg" width="500" height="160" fill="none" viewBox="0 0 500 160">
  <g clip-path="url(#clip0_14_4)">
    <path fill="#5C85FF" fill-rule="evenodd" d="M440.839 101.363h-42.668l21.176-70.787 21.492 70.787zm-6.713-98.951c11.476 0 14.426 2.867 18.79 15.824L500 157.557h-41.944l-10.229-33.491h-56.458l-10.177 33.491h-24.204L404.47 2.401l29.656.01zM188.709 70.677l12.952-19.313c3.276-4.85 3.959-7.888 3.959-11.29 0-9.477-8.323-17.438-17.941-17.438h-19.903v114.143h11.031c18.454 0 32.456-9.964 32.456-33.304 0-19.24-9.028-29.521-22.554-32.798zm7.749 86.942h-65.175V2.381h67.551c31.68 0 42.71 25.814 26.679 49.62l-7.588 11.254c53.145 27.584 35.856 94.364-21.467 94.364zM57.448 70.677l12.94-19.313c3.272-4.85 3.96-7.888 3.96-11.29 0-9.477-8.34-17.438-17.926-17.438H36.504v114.143h11.025c18.454 0 32.456-9.964 32.456-33.304 0-19.24-9.038-29.521-22.538-32.798zm7.738 86.942H0V2.381h67.572c31.67 0 42.71 25.814 26.669 49.62l-7.589 11.254c53.136 27.584 35.857 94.364-21.466 94.364z" clip-rule="evenodd"/>
    <path fill="#5C85FF" d="M350.647 2.38h24.504l-47.296 155.162-37.244-.021-50.744-155.12 27.43-.02c10.575 0 13.365 2.727 18.904 20.306l29.365 97.554 35.081-117.86z"/>
  </g>
  <defs>
    <clipPath id="clip0_14_4">
      <path fill="#fff" d="M0 0h500v158.2H0z" transform="translate(0 .9)"/>
    </clipPath>
  </defs>
</svg>
