<svg xmlns="http://www.w3.org/2000/svg" width="202" height="132" fill="none" viewBox="0 0 202 132">
  <path fill="#9EB3B5" d="M61.486 105.861l-.36.35c-5.822 5.931-12.56 9.074-19.504 9.074-14.494 0-25.014-10.871-25.014-25.874 0-14.975 10.52-25.864 25.014-25.864 6.942 0 13.682 3.157 19.505 9.105l.36.36 9.322-11.272-.25-.304c-7.752-9.162-17.052-13.62-28.486-13.62-11.475 0-21.963 3.861-29.524 10.824C4.336 66.182 0 76.816 0 89.41c0 12.588 4.336 23.25 12.55 30.794 7.56 6.994 18.048 10.835 29.523 10.835 11.434 0 20.734-4.456 28.486-13.62l.25-.286-9.322-11.272zm18.742 23.644h16.466V49.122H80.228v80.383zm80.966-17.478c-4.392 2.674-8.479 4.02-12.152 4.02-5.321 0-7.724-2.809-7.724-9.062V64.333h16.77V49.194h-16.77V24.182l-16.141 8.637v16.375h-13.922v15.137h13.922v45.373c0 12.362 7.323 20.808 18.254 21.027 7.422.146 11.897-2.065 14.615-3.682l.158-.118 3.965-15.499-.975.595zm13.639 17.478h16.478V49.122h-16.48l.002 80.383z"/>
  <path fill="#9EB3B5" fill-rule="evenodd" d="M201.174 34.856C186.098 13.508 161.068.77 135.6.77c-25.461 0-50.499 12.738-65.548 34.087l-.772 1.1h18.98l.21-.228c12.918-13.333 29.78-20.383 47.128-20.383s34.206 7.05 47.149 20.383l.211.228h18.973l-.757-1.1z" clip-rule="evenodd"/>
</svg>
