<svg xmlns="http://www.w3.org/2000/svg" width="50" height="50" fill="none" viewBox="0 0 50 50">
  <g clip-path="url(#clip0_1_17)">
    <path fill="#000" fill-rule="evenodd" d="M20.765 1.144C21.712.227 22.33 0 23.015 0h21.887c1.368 0 3.191.16 4.16 1.5.967 1.34 1 2.5 1 5.643v35.714c0 3.143-.033 4.303-1 5.643-.968 1.34-2.792 1.5-4.16 1.5H22.807c-.684 0-1.42-.41-1.863-.931L2.621 29.777c-.068-.103-1.713-1.972-1.713-1.972C.362 26.917.061 25.952.061 25c0-.952.275-1.665.939-2.87l1.069-1.277.837-.896L20.765 1.144zm3.29 4.032L6.08 24.096 5.22 25l.832.879L23.99 44.844h20.912V5.176H24.055z" clip-rule="evenodd"/>
  </g>
  <defs>
    <clipPath id="clip0_1_17">
      <path fill="#fff" d="M0 0h50v50H0z"/>
    </clipPath>
  </defs>
</svg>
