<svg xmlns="http://www.w3.org/2000/svg" width="223" height="222" fill="none" viewBox="0 0 223 222">
  <path fill="#B1060F" d="M129.206.655l-.087 48.844-.087 48.845-4.013-11.34v-.028l-5.204 108.736c5.117 14.421 7.85 22.126 7.879 22.155.029.029 2.937.203 6.455.378 10.641.523 23.84 1.657 33.871 2.907 2.326.291 4.303.436 4.448.32.146-.116.175-49.833.146-110.51L172.526.655h-43.32zM50.852.51v110.423c0 60.735.058 110.481.145 110.568.087.087 3.838-.291 8.373-.785 4.536-.494 10.787-1.134 13.898-1.396 4.768-.407 19.072-1.308 20.7-1.337.495 0 .524-2.471.582-46.78l.087-46.78 3.46 9.769c.523 1.512.698 1.977 1.221 3.46l5.204-108.708c-1.105-3.111-.523-1.483-1.773-5.03-4.245-12.008-7.85-22.154-7.996-22.62l-.29-.814H50.852v.03z"/>
  <path fill="#E50914" d="M50.852.51l43.756 124v-.058l3.46 9.769c19.218 54.397 29.539 83.588 29.597 83.646.029.029 2.937.203 6.455.378 10.641.523 23.84 1.657 33.871 2.907 2.297.291 4.303.436 4.419.32L129.032 98.314v.03l-4.013-11.34c-3.925-11.077-6.541-18.49-22.328-63.09-4.245-12.008-7.85-22.154-7.996-22.62l-.29-.814H72.627L50.852.51z"/>
</svg>
