<svg xmlns="http://www.w3.org/2000/svg" width="50" height="50" fill="none" viewBox="0 0 50 50">
  <g clip-path="url(#clip0_1_21)">
    <path fill="#000" fill-rule="evenodd" d="M0 2.547A2.547 2.547 0 012.547 0h11.227a2.547 2.547 0 010 5.095h-8.68v8.679a2.547 2.547 0 01-5.094 0V2.547zm33.679 0A2.547 2.547 0 0136.226 0h11.227A2.547 2.547 0 0150 2.547v11.227a2.547 2.547 0 01-5.095 0v-8.68h-8.679a2.547 2.547 0 01-2.547-2.547zM4.989 25a2.547 2.547 0 012.548-2.547h34.926a2.547 2.547 0 010 5.094H7.537A2.547 2.547 0 014.989 25zm-2.442 8.679a2.547 2.547 0 012.548 2.547v8.68h8.679a2.547 2.547 0 010 5.094H2.547A2.547 2.547 0 010 47.453V36.226a2.547 2.547 0 012.547-2.547zm44.906 0A2.547 2.547 0 0150 36.226v11.227A2.547 2.547 0 0147.453 50H36.226a2.547 2.547 0 010-5.095h8.68v-8.679a2.547 2.547 0 012.547-2.547z" clip-rule="evenodd"/>
  </g>
  <defs>
    <clipPath id="clip0_1_21">
      <path fill="#fff" d="M0 0h50v50H0z"/>
    </clipPath>
  </defs>
</svg>
